<?xml version="1.0" standalone="no"?>
<!DOCTYPE svg PUBLIC "-//W3C//DTD SVG 1.1//EN" "http://www.w3.org/Graphics/SVG/1.1/DTD/svg11.dtd" >
<svg xmlns="http://www.w3.org/2000/svg" xmlns:xlink="http://www.w3.org/1999/xlink" version="1.1">
<metadata></metadata>
<defs>
<font id="rokkittsemibold" horiz-adv-x="719" >
<font-face units-per-em="1000" ascent="800" descent="-200" />
<missing-glyph horiz-adv-x="295" />
<glyph unicode="&#xfb01;" horiz-adv-x="571" d="M16 322v77h67v47q0 44 18.5 77t51 51.5t74.5 18.5q49 0 80 -20t44 -54l-62 -50q-7 19 -19.5 30t-32.5 11q-25 0 -38.5 -14.5t-13.5 -42.5v-54h100v-77h-100v-245h90v-77h-254v77h62v245h-67zM321 322v77h169v-322h57v-77h-221v77h62v245h-67zM374 526q0 29 17 47.5 t48 18.5q30 0 47 -18.5t17 -47.5q0 -28 -17 -46t-47 -18q-31 0 -48 18t-17 46z" />
<glyph unicode="&#xfb02;" horiz-adv-x="561" d="M16 322v77h67v47q0 44 18.5 77t51 51.5t74.5 18.5q49 0 80 -20t44 -54l-62 -50q-7 19 -19.5 30t-32.5 11q-25 0 -38.5 -14.5t-13.5 -42.5v-54h100v-77h-100v-245h90v-77h-254v77h62v245h-67zM315 506v77h169v-506h60v-77h-225v77h63v429h-67z" />
<glyph horiz-adv-x="0" />
<glyph horiz-adv-x="333" />
<glyph unicode="&#xd;" horiz-adv-x="295" />
<glyph unicode=" "  horiz-adv-x="295" />
<glyph unicode="&#x09;" horiz-adv-x="295" />
<glyph unicode="&#xa0;" horiz-adv-x="295" />
<glyph unicode="!" horiz-adv-x="195" d="M40 383v200h115v-200l-33 -222h-48zM49 0v93h98v-93h-98z" />
<glyph unicode="&#x22;" horiz-adv-x="270" d="M25 681h85l-13 -241h-57zM160 681h85l-13 -241h-57z" />
<glyph unicode="#" horiz-adv-x="583" d="M23 133l15 84h104l33 136h-103l15 84h104l34 146h78l-34 -146h110l34 146h78l-34 -146h103l-14 -84h-105l-33 -136h102l-14 -84h-104l-32 -132h-78l32 132h-110l-32 -132h-78l32 132h-103zM220 217h110l33 136h-110z" />
<glyph unicode="$" horiz-adv-x="585" d="M56 418q0 53 27 92t75 61t112 22v90h63v-97q47 -7 76 -27t45 -46l-14 -7v77h78v-172h-75q-2 41 -29.5 67t-80.5 30v-170l-14 15l56 -11q88 -17 130 -57t42 -113q0 -81 -54.5 -129.5t-159.5 -52.5v-90h-63v95q-52 8 -89 30t-56 54l12 -3v-76h-78v196h75q3 -52 36 -84.5 t100 -36.5v181l10 -24l-68 14q-70 14 -113 58t-43 114zM170 435q0 -27 20 -45t67 -26l34 -6l-21 -8v158q-49 0 -74.5 -20.5t-25.5 -52.5zM298 232l35 7v-165q55 2 77.5 23t22.5 52q0 35 -21.5 52t-75.5 25z" />
<glyph unicode="%" horiz-adv-x="742" d="M30 446q0 44 20.5 77t56.5 51.5t81 18.5q46 0 81 -18.5t55.5 -51.5t20.5 -77q0 -43 -20.5 -76.5t-55.5 -52.5t-81 -19q-45 0 -81 19t-56.5 52.5t-20.5 76.5zM110 446q0 -38 23 -59.5t55 -21.5t55 21.5t23 59.5t-23 59t-55 21t-55 -21t-23 -59zM140 0l388 583h75 l-388 -583h-75zM397 138q0 44 20.5 77t56 51.5t81.5 18.5t81 -18.5t55.5 -51.5t20.5 -77q0 -43 -20.5 -76.5t-55.5 -52.5t-81 -19t-81.5 19t-56 52.5t-20.5 76.5zM477 137q0 -38 23 -59t55 -21t55 22t23 59q0 38 -23 59t-55 21t-55 -21.5t-23 -59.5z" />
<glyph unicode="&#x26;" horiz-adv-x="604" d="M40 154q0 50 33 92t100 76l14 -43l-28 30q-32 35 -49 70t-17 73q0 62 43 101.5t119 39.5q83 0 122 -39t39 -93q0 -26 -11.5 -52.5t-39.5 -52t-77 -50.5l123 -137q15 32 22.5 68.5t7.5 92.5v7h135v-83h-62q-4 -52 -20.5 -94t-42.5 -72l-1 37l39 -42h87v-83h-138l-36 40 q-33 -25 -72 -37.5t-81 -12.5q-72 0 -118.5 22.5t-68.5 59.5t-22 82zM142 165q0 -42 30.5 -66t91.5 -24q26 0 47.5 6t36.5 19l-143 157q-35 -18 -49 -43t-14 -49zM186 459q0 -24 11.5 -45t35.5 -47l37 -41l-35 27q35 20 54.5 37t27.5 34t8 36q0 29 -16.5 46t-53.5 17 q-32 0 -50.5 -17.5t-18.5 -46.5z" />
<glyph unicode="'" horiz-adv-x="135" d="M25 681h85l-13 -241h-57z" />
<glyph unicode="(" horiz-adv-x="348" d="M65 226q0 121 30 200t85 118t131 39v-83q-72 0 -100 -67.5t-28 -206.5t28 -206.5t100 -67.5v-83q-76 0 -131 39t-85 118t-30 200z" />
<glyph unicode=")" horiz-adv-x="347" d="M37 -48q71 0 99.5 67.5t28.5 206.5t-28.5 206.5t-99.5 67.5v83q76 0 131 -39t84.5 -118t29.5 -200t-29.5 -200t-84.5 -118t-131 -39v83z" />
<glyph unicode="*" horiz-adv-x="431" d="M28 402l31 113l133 -74l-27 142h101l-27 -142l133 74l31 -113l-149 -14l109 -96l-82 -70l-65 134l-66 -134l-82 70l109 96z" />
<glyph unicode="+" horiz-adv-x="486" d="M40 255v84h163v167h81v-167h162v-84h-162v-167h-81v167h-163z" />
<glyph unicode="," horiz-adv-x="154" d="M28 0v93h97v-77q0 -65 -22 -95.5t-75 -30.5v52q28 0 36.5 12t8.5 46h-45z" />
<glyph unicode="-" horiz-adv-x="360" d="M53 169v73h254v-73h-254z" />
<glyph unicode="." horiz-adv-x="154" d="M28 0v93h98v-93h-98z" />
<glyph unicode="/" horiz-adv-x="402" d="M10 -171l290 754h92l-290 -754h-92z" />
<glyph unicode="0" horiz-adv-x="552" d="M40 292q0 98 29.5 165t83 102t123.5 35q71 0 124 -35t82.5 -102t29.5 -165t-29.5 -165.5t-82.5 -102t-124 -34.5q-70 0 -123.5 34.5t-83 102t-29.5 165.5zM155 292q0 -100 31 -151.5t90 -51.5q60 0 90.5 51.5t30.5 151.5t-30.5 151.5t-90.5 51.5q-59 0 -90 -51.5 t-31 -151.5z" />
<glyph unicode="1" horiz-adv-x="320" d="M30 447v83l193 63v-510h67v-83h-249v83h67v386z" />
<glyph unicode="2" horiz-adv-x="497" d="M38 0v62l198 208q47 50 68 83t21 65q0 44 -22.5 66t-71.5 22q-50 0 -75.5 -25.5t-25.5 -72.5q0 -15 1.5 -27.5t5.5 -27.5h-89q-4 16 -6.5 33t-2.5 37q0 79 54.5 124.5t144.5 45.5q85 0 135.5 -43.5t50.5 -121.5q0 -38 -11.5 -71t-36.5 -67.5t-66 -76.5l-157 -163l-37 30 h260v101h76v-181h-414z" />
<glyph unicode="3" horiz-adv-x="497" d="M23 144l91 37q14 -52 48 -78.5t91 -26.5q44 0 71.5 23.5t27.5 67.5q0 48 -29 71t-79 23h-53v86h57q44 0 71 23t27 59q0 37 -27 57.5t-75 20.5t-80.5 -24t-44.5 -68l-91 32q24 72 82.5 109.5t143.5 37.5q57 0 100 -18.5t67 -53.5t24 -83q0 -40 -17.5 -71t-48.5 -50 t-72 -24v17q43 -4 75.5 -24.5t51 -53t18.5 -74.5q0 -50 -25.5 -88.5t-71 -60t-106.5 -21.5q-91 0 -147 39.5t-79 115.5z" />
<glyph unicode="4" horiz-adv-x="536" d="M33 147v64l295 372h95v-353h67v-83h-67v-64h67v-83h-278v83h109v64h-288zM87 230h234v279l30 -13l-239 -297z" />
<glyph unicode="5" horiz-adv-x="511" d="M43 115l87 46q16 -42 48 -63.5t82 -21.5t82 24.5t32 72.5t-31 72.5t-84 24.5q-32 0 -61.5 -9t-56.5 -29l-78 36v315h386v-161h-76v81h-208v-215l-31 21q29 26 66.5 37t76.5 11q58 0 102 -21t69 -61.5t25 -101.5q0 -58 -27 -99t-75 -63t-111 -22q-82 0 -137 33.5t-80 92.5 z" />
<glyph unicode="6" horiz-adv-x="468" d="M39 174q0 40 12 75.5t37 78.5l162 272l84 -52l-150 -251l-41 33q17 16 43 24.5t53 8.5q60 0 104 -23.5t68.5 -65.5t24.5 -97t-24.5 -97.5t-69 -66t-104.5 -23.5t-105 23.5t-69.5 65t-24.5 95.5zM138 177q0 -43 27.5 -71.5t72.5 -28.5q44 0 71.5 28.5t27.5 71.5 q0 44 -27.5 71.5t-71.5 27.5q-45 0 -72.5 -27.5t-27.5 -71.5z" />
<glyph unicode="7" horiz-adv-x="481" d="M35 366v217h428v-64l-200 -519h-124l200 503h-228v-137h-76z" />
<glyph unicode="8" horiz-adv-x="487" d="M39 167q0 59 33 99.5t94 59.5l2 -28q-55 18 -84 53t-29 86q0 46 22.5 81t64.5 55.5t101 20.5t101.5 -20.5t65.5 -55.5t23 -81q0 -51 -29.5 -86t-84.5 -53l2 28q62 -19 94.5 -59.5t32.5 -99.5q0 -52 -25 -91.5t-70.5 -62.5t-109.5 -23q-63 0 -109 23t-70.5 62.5 t-24.5 91.5zM138 171q0 -43 28.5 -68.5t77.5 -25.5q50 0 77.5 25.5t27.5 68.5q0 44 -27.5 70.5t-77.5 26.5q-49 0 -77.5 -26.5t-28.5 -70.5zM152 432q0 -34 24.5 -55.5t67.5 -21.5q44 0 68 21.5t24 55.5q0 35 -24 55t-68 20q-43 0 -67.5 -20t-24.5 -55z" />
<glyph unicode="9" horiz-adv-x="468" d="M32 407q0 56 24.5 98t69 65.5t104.5 23.5q61 0 105.5 -23.5t69 -65t24.5 -95.5q0 -40 -11.5 -75t-37.5 -79l-162 -272l-84 52l150 251l41 -33q-16 -16 -42.5 -24.5t-53.5 -8.5q-59 0 -103.5 23.5t-69 65.5t-24.5 97zM131 407q0 -43 27.5 -71t71.5 -28q45 0 72 28t27 71 q0 44 -27 72t-72 28q-44 0 -71.5 -28t-27.5 -72z" />
<glyph unicode=":" horiz-adv-x="154" d="M28 0v93h98v-93h-98zM28 306v93h98v-93h-98z" />
<glyph unicode=";" horiz-adv-x="155" d="M28 0v93h97v-77q0 -65 -22 -95.5t-75 -30.5v52q28 0 36.5 12t8.5 46h-45zM28 306v93h98v-93h-98z" />
<glyph unicode="&#x3c;" horiz-adv-x="448" d="M40 265v64l368 177v-86l-322 -147v48l322 -147v-86z" />
<glyph unicode="=" horiz-adv-x="486" d="M40 155v84h406v-84h-406zM40 355v84h406v-84h-406z" />
<glyph unicode="&#x3e;" horiz-adv-x="448" d="M40 88v86l323 147v-48l-323 147v86l368 -177v-64z" />
<glyph unicode="?" horiz-adv-x="436" d="M36 428q0 77 50.5 121t134.5 44q82 0 129.5 -42t47.5 -113q0 -43 -15 -75.5t-47 -61.5l-64 -57q-16 -14 -26 -31.5t-10 -40.5v-11h-53v43q0 32 10.5 54t27.5 41l41 44q18 20 27.5 40.5t9.5 45.5q0 33 -19.5 55t-63.5 22t-66.5 -25.5t-22.5 -67.5q0 -12 1.5 -25t4.5 -27 h-89q-4 15 -6 31.5t-2 35.5zM161 0v93h98v-93h-98z" />
<glyph unicode="@" horiz-adv-x="696" d="M40 220q0 95 42.5 168t117.5 115t173 42q86 0 149.5 -32t98.5 -89.5t35 -136.5q0 -63 -21 -114.5t-57 -82t-80 -30.5q-50 0 -70.5 30.5t-7.5 92.5l19 -12q-16 -49 -50 -80t-84 -31q-55 0 -88.5 38.5t-33.5 107.5q0 59 21 104.5t57.5 71.5t82.5 26q53 0 82 -31t27 -72 l-16 -9l23 103h81l-50 -225q-6 -28 0.5 -43t25.5 -15q28 0 50 24.5t34.5 63.5t12.5 83q0 98 -63 157.5t-178 59.5q-85 0 -150 -36.5t-101.5 -100.5t-36.5 -148q0 -77 35 -136t101 -92t158 -33q54 0 100.5 16.5t82.5 46.5l22 -36q-43 -34 -94 -51t-112 -17q-104 0 -180 38.5 t-117 107t-41 157.5zM268 202q0 -36 15.5 -57.5t45.5 -21.5q31 0 52.5 21.5t33 56t11.5 73.5q0 33 -15.5 52t-47.5 19q-29 0 -50.5 -19.5t-33 -52t-11.5 -71.5z" />
<glyph unicode="A" horiz-adv-x="666" d="M2 0v83h63l161 417h-68v83h350v-83h-68l161 -417h63v-83h-245v83h67l-60 162l36 -32h-256l31 32l-59 -162h67v-83h-243zM225 291h212l-16 -28l-87 236h-4l-87 -236z" />
<glyph unicode="B" horiz-adv-x="650" d="M35 0v83h67v417h-67v83h364q86 0 132.5 -36t46.5 -108q0 -39 -16 -67.5t-43 -45t-60 -21.5l-5 8q52 -2 86 -22.5t51.5 -54t17.5 -76.5q0 -79 -49 -119.5t-146 -40.5h-379zM217 83h164q57 0 83 23.5t26 66.5q0 41 -26 65t-83 24h-164v-179zM217 347h153q44 0 66.5 21 t22.5 56q0 39 -23.5 57.5t-76.5 18.5h-142v-153z" />
<glyph unicode="C" horiz-adv-x="673" d="M40 290q0 89 39 157.5t107.5 107.5t156.5 39q87 0 147.5 -36t84.5 -111l-29 19v117h78v-197h-74q-26 57 -76 84t-109 27q-64 0 -110 -26t-71 -72t-25 -108q0 -61 24.5 -107t69.5 -71.5t106 -25.5q64 0 110 30t74 97l89 -45q-33 -87 -101.5 -133t-172.5 -46 q-96 0 -167.5 39t-111 107t-39.5 154z" />
<glyph unicode="D" horiz-adv-x="710" d="M35 0v83h67v417h-67v83h313q112 0 183 -36.5t105 -101.5t34 -153q0 -89 -33.5 -154.5t-104 -101.5t-182.5 -36h-315zM217 83h121q79 0 125.5 25t67 72t20.5 112t-20.5 111.5t-67.5 71.5t-125 25h-121v-417z" />
<glyph unicode="E" horiz-adv-x="598" d="M35 0v83h67v417h-67v83h509v-191h-76v108h-251v-163h127v60h70v-208h-70v65h-127v-171h268v113h76v-196h-526z" />
<glyph unicode="F" horiz-adv-x="571" d="M35 0v83h67v417h-67v83h509v-191h-76v108h-251v-154h127v60h70v-209h-70v65h-127v-179h92v-83h-274z" />
<glyph unicode="G" horiz-adv-x="697" d="M40 290q0 89 39 157.5t109 107.5t162 39q89 0 151.5 -36t84.5 -111l-30 19v117h78v-196h-74q-26 56 -74.5 83t-116.5 27q-66 0 -113 -26t-72 -72t-25 -108q0 -61 24.5 -107t69.5 -71.5t106 -25.5q89 0 133 49q39 43 39 126q0 9 -1 19l55 -60h-154v83h219v-23 q0 -92 -36 -157t-101.5 -99.5t-156.5 -34.5q-95 0 -166 39t-110.5 107t-39.5 154z" />
<glyph unicode="H" horiz-adv-x="707" d="M35 0v83h67v417h-67v83h249v-83h-67v-164h273v164h-68v83h250v-83h-67v-417h67v-83h-250v83h68v173h-273v-173h67v-83h-249z" />
<glyph unicode="I" horiz-adv-x="319" d="M35 0v83h67v417h-67v83h249v-83h-67v-417h67v-83h-249z" />
<glyph unicode="J" horiz-adv-x="315" d="M-16 -75h44q38 0 56.5 18.5t18.5 53.5v503h-78v83h260v-83h-67v-500q0 -83 -42.5 -127t-125.5 -44h-66v96z" />
<glyph unicode="K" horiz-adv-x="636" d="M35 0v83h67v417h-67v83h249v-83h-67v-182l211 182h-55v83h245v-83h-63l-243 -211l-1 47l262 -253h63v-83h-256v83h55l-218 210v-210h67v-83h-249z" />
<glyph unicode="L" horiz-adv-x="537" d="M35 0v83h67v417h-67v83h249v-83h-67v-417h210v150h85v-233h-477z" />
<glyph unicode="M" horiz-adv-x="814" d="M35 0v83h67v417h-67v83h212l166 -352h-16l166 352h216v-83h-67v-417h67v-83h-231v83h60v359l-166 -360h-74l-169 360v-359h60v-83h-224z" />
<glyph unicode="N" horiz-adv-x="706" d="M35 0v83h67v417h-67v83h193l284 -396v313h-67v83h231v-83h-67v-500h-120l-290 413v-330h68v-83h-232z" />
<glyph unicode="O" d="M40 292q0 88 39.5 156t111.5 107t168 39q97 0 168.5 -39t111.5 -107t40 -156q0 -87 -40 -155.5t-111.5 -107.5t-168.5 -39q-96 0 -168 39t-111.5 107.5t-39.5 155.5zM159 291q0 -62 24.5 -108t69.5 -71t106 -25t106 25t70 71t25 108t-25 108.5t-70 72t-106 25.5 t-106 -25.5t-69.5 -72t-24.5 -108.5z" />
<glyph unicode="P" horiz-adv-x="599" d="M35 0v83h67v417h-67v83h317q106 0 160 -43t54 -131t-54 -130.5t-160 -42.5h-90v83h76q52 0 80.5 22.5t28.5 67.5q0 47 -28 69t-81 22h-121v-417h92v-83h-274z" />
<glyph unicode="Q" d="M40 292q0 88 39.5 156t111.5 107t168 39q97 0 168.5 -39t111.5 -107t40 -156q0 -81 -33 -144t-91 -102t-132 -51q11 -25 39 -43.5t71 -18.5q23 0 40 4t33 12l19 -79q-21 -11 -45.5 -16t-50.5 -5q-75 0 -132 37.5t-91 106.5q-81 12 -140.5 52t-92.5 103t-33 144zM159 291 q0 -63 24.5 -109t69.5 -70.5t106 -24.5t106 24.5t70 70.5t25 109q0 62 -25 108.5t-70 72t-106 25.5t-106 -25.5t-69.5 -72t-24.5 -108.5z" />
<glyph unicode="R" horiz-adv-x="640" d="M35 0v83h67v417h-67v83h317q106 0 160 -43t54 -131t-54.5 -130.5t-149.5 -42.5h-18l86 40l120 -193h73v-83h-158l-146 236h-57v83h71q62 0 88 24t26 66q0 43 -25 67t-89 24h-116v-417h67v-83h-249z" />
<glyph unicode="S" horiz-adv-x="565" d="M56 415q0 49 23.5 89.5t70.5 64.5t115 24q64 0 108.5 -23.5t66.5 -71.5h-20v85h78v-172h-75q-4 42 -38.5 69t-99.5 27q-39 0 -63.5 -10.5t-35.5 -27.5t-11 -37q0 -27 19.5 -44.5t65.5 -26.5l105 -21q78 -16 120 -55.5t42 -112.5q0 -51 -25 -92t-73 -65.5t-118 -24.5 q-73 0 -121.5 23.5t-72.5 71.5l20 -9v-76h-78v196h75q4 -60 37 -90t115 -30q66 0 94 23t28 55q0 28 -20 45.5t-70 27.5l-105 21q-74 15 -115.5 57.5t-41.5 109.5z" />
<glyph unicode="T" horiz-adv-x="607" d="M20 366v217h567v-217h-81v134h-145v-417h82v-83h-279v83h82v417h-145v-134h-81z" />
<glyph unicode="U" horiz-adv-x="701" d="M29 500v83h249v-83h-67v-259q0 -53 18 -87t51 -50t78 -16q46 0 79 16t51 50t18 87v259h-67v83h233v-83h-67v-264q0 -82 -30.5 -136.5t-87.5 -82t-136 -27.5t-136.5 29.5t-88 84.5t-30.5 132v264h-67z" />
<glyph unicode="V" horiz-adv-x="640" d="M3 500v83h251v-83h-68l148 -400h-21l148 400h-68v83h244v-83h-63l-189 -500h-131l-188 500h-63z" />
<glyph unicode="W" horiz-adv-x="958" d="M9 500v83h248v-83h-67l111 -400h-20l154 433h96l154 -433h-20l111 400h-67v83h240v-83h-63l-150 -500h-118l-148 389h24l-143 -389h-129l-150 500h-63z" />
<glyph unicode="X" horiz-adv-x="656" d="M18 0v83h58l201 233l-6 -31l-177 215h-58v83h259v-83h-62l122 -147l-36 -10l132 157h-62v83h240v-83h-58l-185 -216l-8 41l198 -242h58v-83h-259v83h62l-136 166l36 1l-141 -167h62v-83h-240z" />
<glyph unicode="Y" horiz-adv-x="634" d="M0 500v83h253v-83h-70l149 -211h-27l151 211h-70v83h248v-83h-63l-197 -272v-145h77v-83h-269v83h77v145l-196 272h-63z" />
<glyph unicode="Z" horiz-adv-x="592" d="M53 0v64l334 436h-242v-134h-81v217h473v-64l-338 -436h274v155h81v-238h-501z" />
<glyph unicode="[" horiz-adv-x="320" d="M103 -131v714h180v-83h-75v-548h75v-83h-180z" />
<glyph unicode="\" horiz-adv-x="402" d="M10 583h92l290 -754h-92z" />
<glyph unicode="]" horiz-adv-x="320" d="M37 -48h75v548h-75v83h180v-714h-180v83z" />
<glyph unicode="^" horiz-adv-x="566" d="M40 77l210 440h63l213 -440h-94l-170 355h42l-170 -355h-94z" />
<glyph unicode="_" horiz-adv-x="561" d="M28 0h505v-73h-505v73z" />
<glyph unicode="`" horiz-adv-x="500" d="M143 616h94l42 -153h-57z" />
<glyph unicode="a" horiz-adv-x="480" d="M37 111q0 56 41.5 88t123.5 32q26 0 59 -5t61 -13l-17 -11v44q0 36 -24 55.5t-73 19.5q-34 0 -67 -9t-63 -26l-25 81q39 21 84 31.5t82 10.5q92 0 140 -41.5t48 -122.5v-168h57v-77h-151v65l15 -12q-25 -30 -64 -46.5t-77 -16.5q-73 0 -111.5 33.5t-38.5 87.5zM137 112 q0 -21 19 -32.5t54 -11.5q29 0 59.5 11.5t45.5 28.5l-10 -30v94l17 -28q-26 8 -52 11t-50 3q-40 0 -61.5 -11.5t-21.5 -34.5z" />
<glyph unicode="b" horiz-adv-x="530" d="M10 506v77h169v-251h-14q20 38 58.5 57.5t80.5 19.5q64 0 106.5 -30.5t64 -78t21.5 -100.5t-21.5 -101t-64 -78.5t-106.5 -30.5q-42 0 -80.5 20t-58.5 57l7 6v-73h-155v77h60v429h-67zM174 129q23 -28 51.5 -40t58.5 -12q47 0 80 32t33 91t-33 90.5t-80 31.5 q-30 0 -58.5 -11.5t-51.5 -40.5l5 38v-221z" />
<glyph unicode="c" horiz-adv-x="459" d="M34 202q0 56 24 103t69.5 75.5t109.5 28.5q30 0 57.5 -10.5t46 -29.5t20.5 -45l-12 -1v76h73v-148h-65q-24 71 -109 71q-58 0 -86.5 -34.5t-28.5 -87.5t33.5 -89t96.5 -36q35 0 68 15t54 36l46 -71q-29 -31 -78 -48t-96 -17q-69 0 -119 28t-77 76.5t-27 107.5z" />
<glyph unicode="d" horiz-adv-x="530" d="M34 200q0 53 21.5 100.5t64.5 78t106 30.5q42 0 80.5 -19.5t58.5 -57.5h-14v174h-67v77h169v-506h60v-77h-155v73l7 -6q-20 -37 -58.5 -57t-80.5 -20q-63 0 -106 30.5t-64.5 78.5t-21.5 101zM133 200q0 -59 33.5 -91t79.5 -32q30 0 59 12t51 40l-5 -42v221l5 -38 q-22 29 -51 40.5t-59 11.5q-46 0 -79.5 -31.5t-33.5 -90.5z" />
<glyph unicode="e" horiz-adv-x="493" d="M34 200q0 58 26 105t74 75.5t113 28.5q66 0 113.5 -28.5t73 -75.5t25.5 -105v-43h-369v80h272q0 22 -13.5 43.5t-39 36.5t-62.5 15t-62.5 -15.5t-39 -39.5t-13.5 -49v-28q0 -57 35 -91t107 -34q42 0 79 13.5t61 35.5l42 -73q-31 -28 -80 -44.5t-105 -16.5q-78 0 -131 28 t-79.5 76t-26.5 106z" />
<glyph unicode="f" horiz-adv-x="305" d="M16 322v77h67v47q0 44 18.5 77t51 51.5t74.5 18.5q49 0 80 -20t44 -54l-62 -50q-7 19 -19.5 30t-32.5 11q-25 0 -38.5 -14.5t-13.5 -42.5v-54h100v-77h-100v-245h90v-77h-254v77h62v245h-67z" />
<glyph unicode="g" horiz-adv-x="543" d="M34 210q0 50 22 95.5t66.5 74.5t109.5 29q44 0 83 -19t60 -54l-7 -5v68h152v-77h-57v-302q0 -64 -25 -109t-71 -68.5t-111 -23.5q-49 0 -95 12t-78 31l37 83q30 -18 62.5 -28.5t66.5 -10.5q57 0 84 29t27 79v56l15 13q-21 -35 -60 -54t-83 -19q-65 0 -109.5 29t-66.5 75 t-22 96zM133 210q0 -54 34.5 -83.5t83.5 -29.5q32 0 62 11t53 37l-5 -36v199l5 -34q-23 26 -53 37t-62 11q-49 0 -83.5 -28.5t-34.5 -83.5z" />
<glyph unicode="h" horiz-adv-x="538" d="M10 506v77h169v-245l-20 -3q38 38 82.5 56t88.5 18q63 0 99 -33.5t36 -104.5v-194h57v-77h-222v77h63v168q0 40 -18 58t-57 18q-29 0 -59 -11t-62 -39l12 32v-226h57v-77h-222v77h63v429h-67z" />
<glyph unicode="i" horiz-adv-x="266" d="M16 322v77h169v-322h57v-77h-221v77h62v245h-67zM69 526q0 29 17 47.5t48 18.5q30 0 47 -18.5t17 -47.5q0 -28 -17 -46t-47 -18q-31 0 -48 18t-17 46z" />
<glyph unicode="j" horiz-adv-x="256" d="M-27 -94h44q35 0 51.5 17.5t16.5 53.5v345h-78v77h180v-412q0 -79 -38 -118.5t-111 -39.5h-65v77zM71 526q0 29 17 47.5t48 18.5q30 0 47 -18.5t17 -47.5q0 -28 -17 -46t-47 -18q-31 0 -48 18t-17 46z" />
<glyph unicode="k" horiz-adv-x="509" d="M10 506v77h169v-375l157 114h-59v77h206v-77h-55l-181 -129l33 46l155 -162h69v-77h-139l-186 199v-122h50v-77h-215v77h63v429h-67z" />
<glyph unicode="l" horiz-adv-x="256" d="M10 506v77h169v-506h60v-77h-225v77h63v429h-67z" />
<glyph unicode="m" horiz-adv-x="816" d="M16 322v77h162v-61l-13 -3q38 38 81 56t86 18q53 0 82.5 -21.5t42.5 -57.5l-14 6q38 38 81 55.5t86 17.5q62 0 97.5 -33.5t35.5 -104.5v-194h57v-77h-219v77h60v168q0 40 -17 58t-55 18q-28 0 -57.5 -11t-59.5 -39l7 47q3 -12 4 -26t1 -21v-194h55v-77h-216v77h60v168 q0 40 -17 58t-55 18q-28 0 -58 -11t-60 -39l12 29v-223h55v-77h-219v77h62v245h-67z" />
<glyph unicode="n" horiz-adv-x="544" d="M16 322v77h162v-61l-13 -3q38 38 82.5 56t88.5 18q63 0 99 -33.5t36 -104.5v-194h57v-77h-221v77h62v168q0 40 -18 58t-57 18q-29 0 -59 -11t-62 -39l12 32v-226h58v-77h-222v77h62v245h-67z" />
<glyph unicode="o" horiz-adv-x="502" d="M34 200q0 59 27 106t76 75t114 28t114 -28t76 -75t27 -106q0 -58 -27 -106t-76 -76t-114 -28t-114 28t-76 76t-27 106zM133 200q0 -55 32 -90.5t86 -35.5q53 0 85.5 35.5t32.5 90.5t-32.5 90t-85.5 35q-54 0 -86 -35t-32 -90z" />
<glyph unicode="p" horiz-adv-x="530" d="M10 322v77h161v-67h-6q20 38 58.5 57.5t80.5 19.5q64 0 106.5 -30.5t64 -78t21.5 -100.5t-21.5 -101t-64 -78.5t-106.5 -30.5q-42 0 -80.5 20t-58.5 57h14v-161h57v-77h-222v77h63v416h-67zM174 129q23 -28 51.5 -40t58.5 -12q47 0 80 32t33 91t-33 90.5t-80 31.5 q-30 0 -58.5 -11.5t-51.5 -40.5l5 38v-221z" />
<glyph unicode="q" horiz-adv-x="531" d="M34 200q0 53 21.5 100.5t64.5 78t106 30.5q42 0 80.5 -19.5t58.5 -57.5h-6v67h161v-77h-67v-416h60v-77h-222v77h60v161h14q-20 -37 -58.5 -57t-80.5 -20q-63 0 -106 30.5t-64.5 78.5t-21.5 101zM133 200q0 -59 33.5 -91t79.5 -32q30 0 59 12t51 40l-5 -42v221l5 -38 q-22 29 -51 40.5t-59 11.5q-46 0 -79.5 -31.5t-33.5 -90.5z" />
<glyph unicode="r" horiz-adv-x="364" d="M16 322v77h162v-115l-10 10q25 58 58 86.5t72 28.5q34 0 63 -18l-33 -102q-14 12 -28 17.5t-27 5.5q-28 0 -51 -19t-37 -52v-164h73v-77h-237v77h62v245h-67z" />
<glyph unicode="s" horiz-adv-x="445" d="M46 0v137h65q6 -26 23.5 -44.5t43.5 -28t56 -9.5q40 0 58.5 13t18.5 33q0 13 -11.5 24t-47.5 20l-92 23q-53 14 -83.5 41.5t-30.5 74.5q0 39 20 67.5t56.5 43.5t83.5 15q56 0 88 -21.5t43 -57.5l-23 -1v69h73v-127h-65q-3 25 -17 41t-35.5 24t-45.5 8q-38 0 -57.5 -13 t-19.5 -33q0 -17 13 -26.5t44 -17.5l92 -22q56 -13 86 -40.5t30 -79.5q0 -38 -20 -65.5t-55.5 -42.5t-83.5 -15q-72 0 -108.5 23.5t-49.5 62.5l24 7v-83h-73z" />
<glyph unicode="t" horiz-adv-x="316" d="M6 322v77h67v131l102 18v-149h110v-77h-110v-168q0 -44 19 -60t52 -16q14 0 26.5 3.5t22.5 7.5l14 -77q-16 -9 -39.5 -15.5t-49.5 -6.5q-64 0 -105.5 35.5t-41.5 114.5v182h-67z" />
<glyph unicode="u" horiz-adv-x="537" d="M6 322v77h169v-245q0 -40 18 -58t57 -18q29 0 59.5 12t61.5 40l-19 -33v225h-62v77h164v-322h57v-77h-151v61l20 3q-38 -38 -82.5 -56t-88.5 -18q-58 0 -97 34t-39 104v194h-67z" />
<glyph unicode="v" horiz-adv-x="509" d="M3 322v77h215v-77h-58l115 -251h-40l121 251h-57v77h207v-77h-50l-156 -322h-91l-156 322h-50z" />
<glyph unicode="w" horiz-adv-x="769" d="M9 322v77h210v-77h-58l100 -244h-30l106 244h-58v77h224v-77h-57l99 -244h-29l106 244h-58v77h197v-77h-50l-141 -322h-85l-110 253h25l-115 -253h-85l-141 322h-50z" />
<glyph unicode="x" horiz-adv-x="518" d="M15 0v77h50l145 136l10 -30l-147 139h-50v77h219v-77h-53l94 -88l-40 -3l93 91h-52v77h207v-77h-50l-137 -129l-7 30l154 -146h53v-77h-225v77h56l-101 97h36l-100 -97h57v-77h-212z" />
<glyph unicode="y" horiz-adv-x="509" d="M3 322v77h217v-77h-58l87 -244l-14 -7l121 251h-57v77h207v-77h-50l-194 -399q-24 -50 -57 -72t-88 -22h-70v90h60q29 0 45.5 11t28.5 36l33 66l30 -32h-65l-126 322h-50z" />
<glyph unicode="z" horiz-adv-x="446" d="M44 0v62l258 292l14 -32h-195v-69h-73v146h357v-62l-257 -293l-13 33h205v81h73v-158h-369z" />
<glyph unicode="{" horiz-adv-x="320" d="M28 185v83h24q28 0 39.5 11.5t11.5 39.5v141q0 54 28.5 88.5t86.5 34.5h65v-83h-29q-26 0 -36 -11t-10 -37v-138q0 -39 -19 -64t-60 -25v2q41 0 60 -25t19 -64v-138q0 -25 10 -36.5t36 -11.5h29v-83h-65q-58 0 -86.5 34.5t-28.5 88.5v142q0 28 -11.5 39.5t-39.5 11.5h-24 z" />
<glyph unicode="|" horiz-adv-x="264" d="M90 -171v754h84v-754h-84z" />
<glyph unicode="}" horiz-adv-x="320" d="M37 -48h29q26 0 36 11.5t10 36.5v138q0 39 19 64t60 25v-2q-41 0 -60 25t-19 64v138q0 26 -10 37t-36 11h-29v83h65q58 0 86.5 -34.5t28.5 -88.5v-141q0 -28 11.5 -39.5t39.5 -11.5h24v-83h-24q-28 0 -39.5 -11.5t-11.5 -39.5v-142q0 -54 -28.5 -88.5t-86.5 -34.5h-65v83 z" />
<glyph unicode="~" horiz-adv-x="553" d="M40 273q17 48 51.5 75.5t75.5 27.5q24 0 50.5 -8t64.5 -27q35 -18 57.5 -26t38.5 -8q51 0 75 59l60 -46q-17 -46 -51.5 -74t-76.5 -28q-23 0 -49.5 7.5t-65.5 28.5q-37 19 -59 26.5t-37 7.5q-25 0 -43.5 -14.5t-30.5 -45.5z" />
<glyph horiz-adv-x="447" />
<glyph unicode="&#xa1;" horiz-adv-x="195" d="M40 16l34 222h48l33 -222v-187h-115v187zM49 306v93h98v-93h-98z" />
<glyph unicode="&#xa2;" horiz-adv-x="459" d="M34 202q0 56 24 103t69.5 75.5t109.5 28.5q7 0 13 -1t11 -3l-33 -14v108h48v-94q34 -9 58.5 -30t26.5 -51l-12 -2v77h73v-148h-65q-10 28 -29.5 46t-51.5 22v-242q29 3 58.5 16t50.5 35l46 -73q-30 -27 -68 -43t-87 -21v-91h-48v92q-56 5 -100 32.5t-69 73t-25 104.5z M133 200q0 -43 23 -75.5t72 -44.5v241q-47 -6 -71 -40t-24 -81z" />
<glyph unicode="&#xa3;" horiz-adv-x="540" d="M20 84q0 42 28.5 69.5t77.5 27.5q29 0 57.5 -10t62.5 -33l-15 -33q1 4 2 11t1 14q0 34 -17 63t-52 76h-106v52h75q-13 22 -22 46t-9 52q0 53 24.5 92t68.5 60.5t102 21.5q92 0 139 -42.5t48 -116.5h-78q-2 32 -26.5 52t-71.5 20q-52 0 -78 -24t-26 -61q0 -26 13 -50.5 t30 -49.5h193v-52h-166q16 -24 28 -50t12 -55q0 -15 -2 -29t-7 -27q15 -10 31 -17.5t38 -7.5q42 0 59.5 20.5t17.5 61.5h63q0 -82 -32.5 -127.5t-99.5 -45.5q-38 0 -66.5 15t-53.5 35q-22 -25 -56 -39t-74 -14q-52 0 -82.5 25.5t-30.5 69.5zM73 82q0 -20 16.5 -33t42.5 -13 q29 0 52 13t36 34q-21 19 -42.5 31.5t-47.5 12.5t-41.5 -12t-15.5 -33z" />
<glyph unicode="&#xa4;" horiz-adv-x="591" d="M40 75l72 64q-26 31 -41 70.5t-15 84.5t15 84t41 70l-72 64l37 42l66 -71q31 24 70 37.5t83 13.5t83 -13.5t70 -37.5l65 71l37 -42l-71 -64q26 -31 40.5 -70t14.5 -84t-14.5 -84.5t-40.5 -70.5l71 -64l-37 -42l-65 71q-31 -24 -70 -37t-83 -13t-83 13t-69 37l-67 -71z M133 294q0 -45 21.5 -80t58.5 -55.5t83 -20.5q47 0 83.5 20.5t57.5 55.5t21 80q0 44 -21 79t-57.5 55.5t-83.5 20.5q-46 0 -83 -20.5t-58.5 -55.5t-21.5 -79z" />
<glyph unicode="&#xa5;" horiz-adv-x="633" d="M0 500v83h254v-83h-70l152 -211h-35l154 211h-70v83h248v-83h-62l-145 -190h102v-52h-135l-19 -25v-53l-11 25h165v-52h-154v-70h78v-83h-270v83h77v70h-153v52h164l-11 -25v53l-18 25h-135v52h101l-144 190h-63z" />
<glyph unicode="&#xa6;" horiz-adv-x="264" d="M90 129h84v-300h-84v300zM90 283v300h84v-300h-84z" />
<glyph unicode="&#xa7;" horiz-adv-x="517" d="M43 273q0 48 37.5 74.5t88.5 25.5l22 -14q-56 15 -84.5 43.5t-28.5 71.5q0 35 20 61.5t55 42t80 15.5q40 0 67.5 -11t45.5 -31v32h73v-127h-65q-2 21 -15.5 37.5t-35 25.5t-47.5 9q-35 0 -56 -12.5t-21 -34.5q0 -15 14 -24t48 -17l103 -23q71 -16 100.5 -40.5t29.5 -66.5 q0 -47 -37 -73.5t-87 -26.5l-20 14q60 -15 89.5 -43t29.5 -72q0 -36 -19.5 -62.5t-55 -41.5t-82.5 -15t-80.5 11.5t-50.5 29.5v-31h-73v127h65q5 -20 21.5 -36.5t42 -26t54.5 -9.5q37 0 57 12.5t20 34.5q0 15 -13.5 24.5t-48.5 16.5l-118 24q-64 13 -94.5 38.5t-30.5 67.5z M144 296q0 -16 13 -25.5t50 -17.5l73 -16q45 2 69 15t24 35q0 17 -13.5 26t-53.5 18l-66 15q-47 -2 -71.5 -14.5t-24.5 -35.5z" />
<glyph unicode="&#xa8;" horiz-adv-x="500" d="M117 513q0 24 15.5 37t36.5 13q22 0 37 -13t15 -37t-15 -37t-37 -13q-21 0 -36.5 13t-15.5 37zM279 512q0 25 15.5 38t36.5 13t36.5 -13t15.5 -38q0 -24 -15.5 -36.5t-36.5 -12.5t-36.5 12.5t-15.5 36.5z" />
<glyph unicode="&#xa9;" horiz-adv-x="706" d="M40 293q0 65 23.5 120.5t66 97t99.5 64.5t124 23t124 -23t99.5 -64.5t66 -97t23.5 -120.5t-23.5 -120.5t-66 -97t-99.5 -64.5t-124 -23t-124 23t-99.5 64.5t-66 97t-23.5 120.5zM76 293q0 -75 36.5 -136.5t99.5 -98t141 -36.5q79 0 141.5 36.5t99 98t36.5 136.5 q0 76 -36.5 137t-99 97.5t-141.5 36.5q-78 0 -141 -36.5t-99.5 -97.5t-36.5 -137zM164 292q0 55 24 96.5t65 65t93 23.5q55 0 89.5 -23t51.5 -67l-16 12v69h50v-118h-54q-15 29 -42 44.5t-62 15.5q-53 0 -85.5 -32.5t-32.5 -84.5q0 -53 31 -85t86 -32q38 0 63.5 17.5 t41.5 53.5l59 -29q-20 -53 -62 -81t-104 -28q-60 0 -104 23t-68 64.5t-24 95.5z" />
<glyph unicode="&#xaa;" horiz-adv-x="386" d="M26 355q0 45 32.5 70.5t91.5 25.5q28 0 55 -4.5t49 -9.5l-14 -9v33q0 29 -19 45t-59 16q-27 0 -53 -7.5t-49 -22.5l-24 68q32 17 69.5 25t72.5 8q75 0 113 -33t38 -98v-133h46v-63h-129v51l13 -9q-28 -26 -56 -38t-63 -12q-55 0 -84.5 27t-29.5 70zM113 356 q0 -17 14.5 -26.5t41.5 -9.5q22 0 42 8t38 23l-9 -21v70l14 -16q-20 5 -39.5 7.5t-38.5 2.5q-31 0 -47 -9.5t-16 -28.5z" />
<glyph unicode="&#xab;" horiz-adv-x="431" d="M30 204l115 151h91l-105 -150l105 -150h-91zM200 204l115 151h91l-105 -150l105 -150h-91z" />
<glyph unicode="&#xac;" horiz-adv-x="486" d="M40 259v77h406v-225h-81v148h-325z" />
<glyph unicode="&#xad;" horiz-adv-x="360" d="M53 169v73h254v-73h-254z" />
<glyph unicode="&#xae;" horiz-adv-x="706" d="M40 293q0 65 23.5 120.5t66 97t99.5 64.5t124 23t124 -23t99.5 -64.5t66 -97t23.5 -120.5t-23.5 -120.5t-66 -97t-99.5 -64.5t-124 -23t-124 23t-99.5 64.5t-66 97t-23.5 120.5zM76 293q0 -75 36.5 -136.5t99.5 -98t141 -36.5q79 0 141.5 36.5t99 98t36.5 136.5 q0 76 -36.5 137t-99 97.5t-141.5 36.5q-78 0 -141 -36.5t-99.5 -97.5t-36.5 -137zM178 119v52h38v245h-38v52h210q61 0 96.5 -25.5t35.5 -78.5q0 -49 -35.5 -76.5t-96.5 -27.5h-16l67 25l63 -113h34v-53h-100l-79 141h-35v52h47q34 0 50 13.5t16 38.5q0 26 -15.5 39 t-50.5 13h-69v-245h40v-52h-162z" />
<glyph unicode="&#xaf;" horiz-adv-x="500" d="M118 463v55h265v-55h-265z" />
<glyph unicode="&#xb0;" horiz-adv-x="272" d="M25 482q0 47 31.5 79t80.5 32q47 0 78.5 -32t31.5 -79t-31.5 -79.5t-78.5 -32.5q-49 0 -80.5 32.5t-31.5 79.5zM70 482q0 -29 18 -49t49 -20t49 20t18 50q0 29 -18 48t-49 19t-49 -19.5t-18 -48.5z" />
<glyph unicode="&#xb1;" horiz-adv-x="486" d="M40 0v83h406v-83h-406zM40 287v83h163v136h81v-136h162v-83h-162v-136h-81v136h-163z" />
<glyph unicode="&#xb2;" horiz-adv-x="299" d="M24 503q0 41 32 65.5t90 24.5q55 0 85 -22.5t30 -65.5q0 -25 -13.5 -46.5t-42.5 -47.5l-102 -93l-26 31h152v39h48v-96h-252v38l112 99q27 24 40 39t13 32q0 19 -11.5 29t-37.5 10q-27 0 -40 -12.5t-13 -33.5q0 -7 1 -13l2 -12h-62q-2 8 -3.5 16.5t-1.5 18.5z" />
<glyph unicode="&#xb3;" horiz-adv-x="287" d="M18 364l61 19q2 -22 19 -34t45 -12q29 0 44.5 11t15.5 29q0 20 -15.5 29.5t-39.5 9.5h-30v55h31q23 0 36 9.5t13 25.5q0 15 -12.5 24t-41.5 9q-28 0 -44.5 -10.5t-18.5 -27.5l-61 15q11 37 45 57t83 20q55 0 86 -21t31 -58q0 -31 -23.5 -50.5t-58.5 -23.5v7 q37 -2 61.5 -23.5t24.5 -53.5q0 -40 -34 -63.5t-88 -23.5q-55 0 -87 21t-42 60z" />
<glyph unicode="&#xb4;" horiz-adv-x="500" d="M222 463l42 153h93l-78 -153h-57z" />
<glyph unicode="&#xb5;" horiz-adv-x="537" d="M6 322v77h169v-245q0 -40 18 -58t57 -18q29 0 59.5 12t61.5 40l-19 -33v225h-62v77h164v-322h58v-77h-152v61l20 3q-38 -38 -82.5 -56t-88.5 -18q-29 0 -53.5 7.5t-38.5 24.5l58 28v-186h-102v458h-67z" />
<glyph unicode="&#xb6;" horiz-adv-x="600" d="M33 409q0 88 51.5 131t153.5 43h327v-83h-67v-417h67v-83h-374v83h192v153h-145q-102 0 -153.5 42.5t-51.5 130.5zM285 319h98v181h-98v-181z" />
<glyph unicode="&#xb7;" horiz-adv-x="204" d="M53 159v93h98v-93h-98z" />
<glyph unicode="&#xb8;" horiz-adv-x="500" d="M165 -160l18 43q11 -7 28.5 -12.5t42.5 -5.5q49 0 49 34q0 11 -9.5 19t-29.5 8q-9 0 -18 -1.5t-20 -7.5l-18 14l13 79h58l-11 -69l-27 8q11 5 22 7.5t22 2.5q41 0 63.5 -17t22.5 -47q0 -34 -32 -54.5t-83 -20.5q-27 0 -52 5t-39 15z" />
<glyph unicode="&#xb9;" horiz-adv-x="242" d="M38 499v56l133 36v-242h44v-57h-171v57h44v161z" />
<glyph unicode="&#xba;" horiz-adv-x="398" d="M24 430q0 50 22.5 86.5t62.5 56.5t90 20q51 0 90.5 -20t62 -56.5t22.5 -86.5t-22.5 -87t-62 -57t-90.5 -20q-50 0 -90 20t-62.5 57t-22.5 87zM110 429q0 -29 12 -49.5t32.5 -30.5t44.5 -10t44 10.5t32.5 31t12.5 49.5t-12.5 49t-32.5 30.5t-44 10.5t-44.5 -10.5 t-32.5 -30.5t-12 -50z" />
<glyph unicode="&#xbb;" horiz-adv-x="431" d="M25 55l105 150l-105 150h91l115 -151l-115 -149h-91zM195 55l105 150l-105 150h91l115 -151l-115 -149h-91z" />
<glyph unicode="&#xbc;" horiz-adv-x="624" d="M38 499v56l133 36v-242h44v-57h-171v57h44v161zM97 0l388 583h64l-386 -583h-66zM342 73v33l147 185h75v-168h32v-50h-32v-23h32v-50h-164v50h54v23h-144zM374 123h112v131l21 -6l-120 -148z" />
<glyph unicode="&#xbd;" horiz-adv-x="673" d="M38 499v56l133 36v-242h44v-57h-171v57h44v161zM97 0l388 583h64l-386 -583h-66zM398 211q0 41 32 65.5t90 24.5q55 0 85 -22.5t30 -65.5q0 -25 -13.5 -46.5t-42.5 -47.5l-102 -93l-26 31h152v39h48v-96h-252v38l112 99q27 24 40 39t13 32q0 19 -11.5 29t-37.5 10 q-27 0 -40 -12.5t-13 -33.5q0 -7 1 -13l2 -12h-62q-2 8 -3.5 16.5t-1.5 18.5z" />
<glyph unicode="&#xbe;" horiz-adv-x="669" d="M18 364l61 19q2 -22 19 -34t45 -12q29 0 44.5 11t15.5 29q0 20 -15.5 29.5t-39.5 9.5h-30v55h31q23 0 36 9.5t13 25.5q0 15 -12.5 24t-41.5 9q-28 0 -44.5 -10.5t-18.5 -27.5l-61 15q11 37 45 57t83 20q55 0 86 -21t31 -58q0 -31 -23.5 -50.5t-58.5 -23.5v7 q37 -2 61.5 -23.5t24.5 -53.5q0 -40 -34 -63.5t-88 -23.5q-55 0 -87 21t-42 60zM142 0l388 583h64l-386 -583h-66zM387 73v33l147 185h75v-168h32v-50h-32v-23h32v-50h-164v50h54v23h-144zM419 123h112v131l21 -6l-120 -148z" />
<glyph unicode="&#xbf;" horiz-adv-x="436" d="M38 -31q0 42 15.5 74t46.5 59l64 56q16 14 26 30.5t10 39.5v10h53v-42q0 -31 -10.5 -52.5t-27.5 -39.5l-41 -42q-18 -19 -27.5 -36.5t-9.5 -43.5q0 -31 20 -53.5t63 -22.5q44 0 66.5 25t22.5 65q0 10 -1.5 22.5t-4.5 26.5h89q4 -15 6 -30.5t2 -35.5q0 -73 -50.5 -116.5 t-134.5 -43.5q-82 0 -129.5 41.5t-47.5 108.5zM177 306v93h98v-93h-98z" />
<glyph unicode="&#xc0;" horiz-adv-x="666" d="M2 0v83h63l161 417h-68v83h350v-83h-68l161 -417h63v-83h-245v83h67l-60 162l36 -32h-256l31 32l-59 -162h67v-83h-243zM225 291h212l-16 -28l-87 236h-4l-87 -236zM226 801h94l42 -153h-57z" />
<glyph unicode="&#xc1;" horiz-adv-x="666" d="M2 0v83h63l161 417h-68v83h350v-83h-68l161 -417h63v-83h-245v83h67l-60 162l36 -32h-256l31 32l-59 -162h67v-83h-243zM225 291h212l-16 -28l-87 236h-4l-87 -236zM305 648l42 153h93l-78 -153h-57z" />
<glyph unicode="&#xc2;" horiz-adv-x="666" d="M2 0v83h63l161 417h-68v83h350v-83h-68l161 -417h63v-83h-245v83h67l-60 162l36 -32h-256l31 32l-59 -162h67v-83h-243zM202 648l80 153h104l79 -153h-61l-71 109l-70 -109h-61zM225 291h212l-16 -28l-87 236h-4l-87 -236z" />
<glyph unicode="&#xc3;" horiz-adv-x="666" d="M2 0v83h63l161 417h-68v83h350v-83h-68l161 -417h63v-83h-245v83h67l-60 162l36 -32h-256l31 32l-59 -162h67v-83h-243zM190 648q4 53 27.5 77.5t58.5 24.5q23 0 43.5 -10.5t39 -21.5t35.5 -11q16 0 26 12t12 31h45q-4 -52 -27.5 -77t-58.5 -25q-23 0 -43.5 11t-39 21.5 t-35.5 10.5q-16 0 -26 -11.5t-12 -31.5h-45zM225 291h212l-16 -28l-87 236h-4l-87 -236z" />
<glyph unicode="&#xc4;" horiz-adv-x="666" d="M2 0v83h63l161 417h-68v83h350v-83h-68l161 -417h63v-83h-245v83h67l-60 162l36 -32h-256l31 32l-59 -162h67v-83h-243zM200 698q0 24 15.5 37t36.5 13q22 0 37 -13t15 -37t-15 -37t-37 -13q-21 0 -36.5 13t-15.5 37zM225 291h212l-16 -28l-87 236h-4l-87 -236zM362 697 q0 25 15.5 38t36.5 13t36.5 -13t15.5 -38q0 -24 -15.5 -36.5t-36.5 -12.5t-36.5 12.5t-15.5 36.5z" />
<glyph unicode="&#xc5;" horiz-adv-x="666" d="M2 0v83h63l161 417h-68v83h350v-83h-68l161 -417h63v-83h-245v83h67l-60 162l36 -32h-256l31 32l-59 -162h67v-83h-243zM225 291h212l-16 -28l-87 236h-4l-87 -236zM243 735q0 38 26 63t64 25t64 -25t26 -63q0 -37 -26 -62t-64 -25t-64 25t-26 62zM286 735 q0 -20 13.5 -33.5t33.5 -13.5t33.5 13.5t13.5 33.5t-13.5 33.5t-33.5 13.5t-33.5 -13.5t-13.5 -33.5z" />
<glyph unicode="&#xc6;" horiz-adv-x="961" d="M-5 0v83h63l239 417h-68v83h607l27 -191h-76l-16 108h-252l26 -163h127l-9 60h70l29 -208h-70l-9 65h-128l26 -171h268l-16 113h76l27 -196h-534v83h68l-24 150l31 -20h-249l38 32l-92 -162h67v-83h-246zM260 291h205l-23 -16l-34 224h-4l-131 -236z" />
<glyph unicode="&#xc7;" horiz-adv-x="673" d="M40 290q0 89 39 157.5t107.5 107.5t156.5 39q87 0 147.5 -36t84.5 -111l-29 19v117h78v-197h-74q-26 57 -76 84t-109 27q-64 0 -110 -26t-71 -72t-25 -108q0 -61 24.5 -107t69.5 -71.5t106 -25.5q64 0 110 30t74 97l89 -45q-33 -87 -101.5 -133t-172.5 -46 q-96 0 -167.5 39t-111 107t-39.5 154zM278 -160l18 43q11 -7 28.5 -12.5t42.5 -5.5q49 0 49 34q0 11 -9.5 19t-29.5 8q-9 0 -18 -1.5t-20 -7.5l-18 14l13 79h58l-11 -69l-27 8q11 5 22 7.5t22 2.5q41 0 63.5 -17t22.5 -47q0 -34 -32 -54.5t-83 -20.5q-27 0 -52 5t-39 15z " />
<glyph unicode="&#xc8;" horiz-adv-x="598" d="M35 0v83h67v417h-67v83h509v-191h-76v108h-251v-163h127v60h70v-208h-70v65h-127v-171h268v113h76v-196h-526zM212 801h94l42 -153h-57z" />
<glyph unicode="&#xc9;" horiz-adv-x="598" d="M35 0v83h67v417h-67v83h509v-191h-76v108h-251v-163h127v60h70v-208h-70v65h-127v-171h268v113h76v-196h-526zM291 648l42 153h93l-78 -153h-57z" />
<glyph unicode="&#xca;" horiz-adv-x="598" d="M35 0v83h67v417h-67v83h509v-191h-76v108h-251v-163h127v60h70v-208h-70v65h-127v-171h268v113h76v-196h-526zM188 648l80 153h104l79 -153h-61l-71 109l-70 -109h-61z" />
<glyph unicode="&#xcb;" horiz-adv-x="598" d="M35 0v83h67v417h-67v83h509v-191h-76v108h-251v-163h127v60h70v-208h-70v65h-127v-171h268v113h76v-196h-526zM186 698q0 24 15.5 37t36.5 13q22 0 37 -13t15 -37t-15 -37t-37 -13q-21 0 -36.5 13t-15.5 37zM348 697q0 25 15.5 38t36.5 13t36.5 -13t15.5 -38 q0 -24 -15.5 -36.5t-36.5 -12.5t-36.5 12.5t-15.5 36.5z" />
<glyph unicode="&#xcc;" horiz-adv-x="319" d="M35 0v83h67v417h-67v83h249v-83h-67v-417h67v-83h-249zM53 801h94l42 -153h-57z" />
<glyph unicode="&#xcd;" horiz-adv-x="319" d="M35 0v83h67v417h-67v83h249v-83h-67v-417h67v-83h-249zM132 648l42 153h93l-78 -153h-57z" />
<glyph unicode="&#xce;" horiz-adv-x="319" d="M29 648l80 153h104l79 -153h-61l-71 109l-70 -109h-61zM35 0v83h67v417h-67v83h249v-83h-67v-417h67v-83h-249z" />
<glyph unicode="&#xcf;" horiz-adv-x="319" d="M27 698q0 24 15.5 37t36.5 13q22 0 37 -13t15 -37t-15 -37t-37 -13q-21 0 -36.5 13t-15.5 37zM35 0v83h67v417h-67v83h249v-83h-67v-417h67v-83h-249zM189 697q0 25 15.5 38t36.5 13t36.5 -13t15.5 -38q0 -24 -15.5 -36.5t-36.5 -12.5t-36.5 12.5t-15.5 36.5z" />
<glyph unicode="&#xd0;" horiz-adv-x="710" d="M35 0v83h67v174h-67v77h67v166h-67v83h313q112 0 183 -36.5t105 -101.5t34 -153q0 -89 -33.5 -154.5t-104 -101.5t-182.5 -36h-315zM217 83h121q79 0 125.5 25t67 72t20.5 112t-20.5 111.5t-67.5 71.5t-125 25h-121v-166h135v-77h-135v-174z" />
<glyph unicode="&#xd1;" horiz-adv-x="706" d="M35 0v83h67v417h-67v83h193l284 -396v313h-67v83h231v-83h-67v-500h-120l-290 413v-330h68v-83h-232zM213 648q4 53 27.5 77.5t58.5 24.5q23 0 43.5 -10.5t39 -21.5t35.5 -11q16 0 26 12t12 31h45q-4 -52 -27.5 -77t-58.5 -25q-23 0 -43.5 11t-39 21.5t-35.5 10.5 q-16 0 -26 -11.5t-12 -31.5h-45z" />
<glyph unicode="&#xd2;" d="M40 292q0 88 39.5 156t111.5 107t168 39q97 0 168.5 -39t111.5 -107t40 -156q0 -87 -40 -155.5t-111.5 -107.5t-168.5 -39q-96 0 -168 39t-111.5 107.5t-39.5 155.5zM159 291q0 -62 24.5 -108t69.5 -71t106 -25t106 25t70 71t25 108t-25 108.5t-70 72t-106 25.5 t-106 -25.5t-69.5 -72t-24.5 -108.5zM251 801h94l42 -153h-57z" />
<glyph unicode="&#xd3;" d="M40 292q0 88 39.5 156t111.5 107t168 39q97 0 168.5 -39t111.5 -107t40 -156q0 -87 -40 -155.5t-111.5 -107.5t-168.5 -39q-96 0 -168 39t-111.5 107.5t-39.5 155.5zM159 291q0 -62 24.5 -108t69.5 -71t106 -25t106 25t70 71t25 108t-25 108.5t-70 72t-106 25.5 t-106 -25.5t-69.5 -72t-24.5 -108.5zM330 648l42 153h93l-78 -153h-57z" />
<glyph unicode="&#xd4;" d="M40 292q0 88 39.5 156t111.5 107t168 39q97 0 168.5 -39t111.5 -107t40 -156q0 -87 -40 -155.5t-111.5 -107.5t-168.5 -39q-96 0 -168 39t-111.5 107.5t-39.5 155.5zM159 291q0 -62 24.5 -108t69.5 -71t106 -25t106 25t70 71t25 108t-25 108.5t-70 72t-106 25.5 t-106 -25.5t-69.5 -72t-24.5 -108.5zM227 648l80 153h104l79 -153h-61l-71 109l-70 -109h-61z" />
<glyph unicode="&#xd5;" d="M40 292q0 88 39.5 156t111.5 107t168 39q97 0 168.5 -39t111.5 -107t40 -156q0 -87 -40 -155.5t-111.5 -107.5t-168.5 -39q-96 0 -168 39t-111.5 107.5t-39.5 155.5zM159 291q0 -62 24.5 -108t69.5 -71t106 -25t106 25t70 71t25 108t-25 108.5t-70 72t-106 25.5 t-106 -25.5t-69.5 -72t-24.5 -108.5zM215 648q4 53 27.5 77.5t58.5 24.5q23 0 43.5 -10.5t39 -21.5t35.5 -11q16 0 26 12t12 31h45q-4 -52 -27.5 -77t-58.5 -25q-23 0 -43.5 11t-39 21.5t-35.5 10.5q-16 0 -26 -11.5t-12 -31.5h-45z" />
<glyph unicode="&#xd6;" d="M40 292q0 88 39.5 156t111.5 107t168 39q97 0 168.5 -39t111.5 -107t40 -156q0 -87 -40 -155.5t-111.5 -107.5t-168.5 -39q-96 0 -168 39t-111.5 107.5t-39.5 155.5zM159 291q0 -62 24.5 -108t69.5 -71t106 -25t106 25t70 71t25 108t-25 108.5t-70 72t-106 25.5 t-106 -25.5t-69.5 -72t-24.5 -108.5zM225 698q0 24 15.5 37t36.5 13q22 0 37 -13t15 -37t-15 -37t-37 -13q-21 0 -36.5 13t-15.5 37zM387 697q0 25 15.5 38t36.5 13t36.5 -13t15.5 -38q0 -24 -15.5 -36.5t-36.5 -12.5t-36.5 12.5t-15.5 36.5z" />
<glyph unicode="&#xd7;" horiz-adv-x="486" d="M75 179l116 118l-116 118l51 56l118 -119l117 119l51 -56l-115 -118l115 -118l-51 -56l-117 119l-118 -119z" />
<glyph unicode="&#xd8;" d="M40 292q0 90 40 158t111.5 106t167.5 38q47 0 88.5 -9.5t75.5 -27.5l51 63l60 -49l-47 -58q44 -40 68 -96.5t24 -124.5q0 -90 -40 -158t-111.5 -106t-168.5 -38q-46 0 -87.5 9t-76.5 26l-48 -60l-60 49l47 56q-45 40 -69.5 96t-24.5 126zM159 291q0 -40 11 -75.5 t39 -67.5l-18 -4l272 338l9 -15q-20 14 -48 22t-65 8q-61 0 -106 -26t-69.5 -72t-24.5 -108zM247 115q21 -12 49 -20t63 -8q61 0 106 25.5t70 71.5t25 107q0 44 -12.5 78.5t-35.5 65.5h13l-271 -337z" />
<glyph unicode="&#xd9;" horiz-adv-x="701" d="M29 500v83h249v-83h-67v-259q0 -53 18 -87t51 -50t78 -16q46 0 79 16t51 50t18 87v259h-67v83h233v-83h-67v-264q0 -82 -30.5 -136.5t-87.5 -82t-136 -27.5t-136.5 29.5t-88 84.5t-30.5 132v264h-67zM252 801h94l42 -153h-57z" />
<glyph unicode="&#xda;" horiz-adv-x="701" d="M29 500v83h249v-83h-67v-259q0 -53 18 -87t51 -50t78 -16q46 0 79 16t51 50t18 87v259h-67v83h233v-83h-67v-264q0 -82 -30.5 -136.5t-87.5 -82t-136 -27.5t-136.5 29.5t-88 84.5t-30.5 132v264h-67zM331 648l42 153h93l-78 -153h-57z" />
<glyph unicode="&#xdb;" horiz-adv-x="701" d="M29 500v83h249v-83h-67v-259q0 -53 18 -87t51 -50t78 -16q46 0 79 16t51 50t18 87v259h-67v83h233v-83h-67v-264q0 -82 -30.5 -136.5t-87.5 -82t-136 -27.5t-136.5 29.5t-88 84.5t-30.5 132v264h-67zM228 648l80 153h104l79 -153h-61l-71 109l-70 -109h-61z" />
<glyph unicode="&#xdc;" horiz-adv-x="701" d="M29 500v83h249v-83h-67v-259q0 -53 18 -87t51 -50t78 -16q46 0 79 16t51 50t18 87v259h-67v83h233v-83h-67v-264q0 -82 -30.5 -136.5t-87.5 -82t-136 -27.5t-136.5 29.5t-88 84.5t-30.5 132v264h-67zM226 698q0 24 15.5 37t36.5 13q22 0 37 -13t15 -37t-15 -37t-37 -13 q-21 0 -36.5 13t-15.5 37zM388 697q0 25 15.5 38t36.5 13t36.5 -13t15.5 -38q0 -24 -15.5 -36.5t-36.5 -12.5t-36.5 12.5t-15.5 36.5z" />
<glyph unicode="&#xdd;" horiz-adv-x="634" d="M0 500v83h253v-83h-70l149 -211h-27l151 211h-70v83h248v-83h-63l-197 -272v-145h77v-83h-269v83h77v145l-196 272h-63zM289 648l42 153h93l-78 -153h-57z" />
<glyph unicode="&#xde;" horiz-adv-x="599" d="M35 0v83h67v417h-67v83h264v-83h-82v-55h165q94 0 139 -39t45 -110t-45 -109.5t-139 -38.5h-120v80h87q51 0 74.5 17t23.5 51q0 35 -23 52t-75 17h-132v-282h92v-83h-274z" />
<glyph unicode="&#xdf;" horiz-adv-x="573" d="M13 0v77h63v321q0 92 55.5 143.5t155.5 51.5q61 0 104 -19t66 -52t23 -74q0 -55 -34 -87t-96 -38l5 14q50 0 90 -18t63 -55t23 -93q0 -61 -24 -98.5t-68 -55t-105 -17.5h-64v85h48q34 0 59.5 10.5t40 32.5t14.5 57q0 37 -16 59.5t-45 33.5t-68 11h-43v77h31 q46 0 67.5 19.5t21.5 50.5q0 30 -23.5 50t-70.5 20q-56 0 -82 -28t-26 -75v-326h40v-77h-205z" />
<glyph unicode="&#xe0;" horiz-adv-x="480" d="M37 111q0 56 41.5 88t123.5 32q26 0 59 -5t61 -13l-17 -11v44q0 36 -24 55.5t-73 19.5q-34 0 -67 -9t-63 -26l-25 81q39 21 84 31.5t82 10.5q92 0 140 -41.5t48 -122.5v-168h57v-77h-151v65l15 -12q-25 -30 -64 -46.5t-77 -16.5q-73 0 -111.5 33.5t-38.5 87.5zM124 617 h94l42 -153h-57zM137 112q0 -21 19 -32.5t54 -11.5q29 0 59.5 11.5t45.5 28.5l-10 -30v94l17 -28q-26 8 -52 11t-50 3q-40 0 -61.5 -11.5t-21.5 -34.5z" />
<glyph unicode="&#xe1;" horiz-adv-x="480" d="M37 111q0 56 41.5 88t123.5 32q26 0 59 -5t61 -13l-17 -11v44q0 36 -24 55.5t-73 19.5q-34 0 -67 -9t-63 -26l-25 81q39 21 84 31.5t82 10.5q92 0 140 -41.5t48 -122.5v-168h57v-77h-151v65l15 -12q-25 -30 -64 -46.5t-77 -16.5q-73 0 -111.5 33.5t-38.5 87.5zM137 112 q0 -21 19 -32.5t54 -11.5q29 0 59.5 11.5t45.5 28.5l-10 -30v94l17 -28q-26 8 -52 11t-50 3q-40 0 -61.5 -11.5t-21.5 -34.5zM203 464l42 153h93l-78 -153h-57z" />
<glyph unicode="&#xe2;" horiz-adv-x="480" d="M37 111q0 56 41.5 88t123.5 32q26 0 59 -5t61 -13l-17 -11v44q0 36 -24 55.5t-73 19.5q-34 0 -67 -9t-63 -26l-25 81q39 21 84 31.5t82 10.5q92 0 140 -41.5t48 -122.5v-168h57v-77h-151v65l15 -12q-25 -30 -64 -46.5t-77 -16.5q-73 0 -111.5 33.5t-38.5 87.5zM100 464 l80 153h104l79 -153h-61l-71 109l-70 -109h-61zM137 112q0 -21 19 -32.5t54 -11.5q29 0 59.5 11.5t45.5 28.5l-10 -30v94l17 -28q-26 8 -52 11t-50 3q-40 0 -61.5 -11.5t-21.5 -34.5z" />
<glyph unicode="&#xe3;" horiz-adv-x="480" d="M37 111q0 56 41.5 88t123.5 32q26 0 59 -5t61 -13l-17 -11v44q0 36 -24 55.5t-73 19.5q-34 0 -67 -9t-63 -26l-25 81q39 21 84 31.5t82 10.5q92 0 140 -41.5t48 -122.5v-168h57v-77h-151v65l15 -12q-25 -30 -64 -46.5t-77 -16.5q-73 0 -111.5 33.5t-38.5 87.5zM88 464 q4 53 27.5 77.5t58.5 24.5q23 0 43.5 -10.5t39 -21.5t35.5 -11q16 0 26 12t12 31h45q-4 -52 -27.5 -77t-58.5 -25q-23 0 -43.5 11t-39 21.5t-35.5 10.5q-16 0 -26 -11.5t-12 -31.5h-45zM137 112q0 -21 19 -32.5t54 -11.5q29 0 59.5 11.5t45.5 28.5l-10 -30v94l17 -28 q-26 8 -52 11t-50 3q-40 0 -61.5 -11.5t-21.5 -34.5z" />
<glyph unicode="&#xe4;" horiz-adv-x="480" d="M37 111q0 56 41.5 88t123.5 32q26 0 59 -5t61 -13l-17 -11v44q0 36 -24 55.5t-73 19.5q-34 0 -67 -9t-63 -26l-25 81q39 21 84 31.5t82 10.5q92 0 140 -41.5t48 -122.5v-168h57v-77h-151v65l15 -12q-25 -30 -64 -46.5t-77 -16.5q-73 0 -111.5 33.5t-38.5 87.5zM98 514 q0 24 15.5 37t36.5 13q22 0 37 -13t15 -37t-15 -37t-37 -13q-21 0 -36.5 13t-15.5 37zM137 112q0 -21 19 -32.5t54 -11.5q29 0 59.5 11.5t45.5 28.5l-10 -30v94l17 -28q-26 8 -52 11t-50 3q-40 0 -61.5 -11.5t-21.5 -34.5zM260 513q0 25 15.5 38t36.5 13t36.5 -13t15.5 -38 q0 -24 -15.5 -36.5t-36.5 -12.5t-36.5 12.5t-15.5 36.5z" />
<glyph unicode="&#xe5;" horiz-adv-x="480" d="M37 111q0 56 41.5 88t123.5 32q26 0 59 -5t61 -13l-17 -11v44q0 36 -24 55.5t-73 19.5q-34 0 -67 -9t-63 -26l-25 81q39 21 84 31.5t82 10.5q92 0 140 -41.5t48 -122.5v-168h57v-77h-151v65l15 -12q-25 -30 -64 -46.5t-77 -16.5q-73 0 -111.5 33.5t-38.5 87.5zM137 112 q0 -21 19 -32.5t54 -11.5q29 0 59.5 11.5t45.5 28.5l-10 -30v94l17 -28q-26 8 -52 11t-50 3q-40 0 -61.5 -11.5t-21.5 -34.5zM141 551q0 38 26 63t64 25t64 -25t26 -63q0 -37 -26 -62t-64 -25t-64 25t-26 62zM184 551q0 -20 13.5 -33.5t33.5 -13.5t33.5 13.5t13.5 33.5 t-13.5 33.5t-33.5 13.5t-33.5 -13.5t-13.5 -33.5z" />
<glyph unicode="&#xe6;" horiz-adv-x="763" d="M37 111q0 56 41 90t119 34h126l-18 -30v41q0 36 -24.5 55.5t-75.5 19.5q-31 0 -64 -9t-63 -26l-25 81q39 21 84 31.5t82 10.5q62 0 105 -20t57 -64l-32 -7q22 41 67.5 66t105.5 25q63 0 109.5 -28.5t72 -75.5t25.5 -105v-38h-369v73h272q0 23 -13.5 45t-39 37t-62.5 15 t-62.5 -15.5t-39 -39.5t-13.5 -49v-28q0 -57 35 -91t107 -34q42 0 79 13.5t61 34.5l42 -72q-34 -28 -84.5 -44.5t-100.5 -16.5q-69 0 -117.5 22t-76.5 59l21 1q-42 -41 -83.5 -61.5t-97.5 -20.5q-73 0 -111.5 33.5t-38.5 87.5zM137 112q0 -21 19 -32.5t54 -11.5t66 14.5 t53 40.5v-24q-9 14 -14 30.5t-7 32.5h-86q-43 0 -64 -13.5t-21 -36.5z" />
<glyph unicode="&#xe7;" horiz-adv-x="459" d="M34 202q0 56 24 103t69.5 75.5t109.5 28.5q30 0 57.5 -10.5t46 -29.5t20.5 -45l-12 -1v76h73v-148h-65q-24 71 -109 71q-58 0 -86.5 -34.5t-28.5 -87.5t33.5 -89t96.5 -36q35 0 68 15t54 36l46 -71q-29 -31 -78 -48t-96 -17q-69 0 -119 28t-77 76.5t-27 107.5zM168 -160 l18 43q11 -7 28.5 -12.5t42.5 -5.5q49 0 49 34q0 11 -9.5 19t-29.5 8q-9 0 -18 -1.5t-20 -7.5l-18 14l13 79h58l-11 -69l-27 8q11 5 22 7.5t22 2.5q41 0 63.5 -17t22.5 -47q0 -34 -32 -54.5t-83 -20.5q-27 0 -52 5t-39 15z" />
<glyph unicode="&#xe8;" horiz-adv-x="493" d="M34 200q0 58 26 105t74 75.5t113 28.5q66 0 113.5 -28.5t73 -75.5t25.5 -105v-43h-369v80h272q0 22 -13.5 43.5t-39 36.5t-62.5 15t-62.5 -15.5t-39 -39.5t-13.5 -49v-28q0 -57 35 -91t107 -34q42 0 79 13.5t61 35.5l42 -73q-31 -28 -80 -44.5t-105 -16.5q-78 0 -131 28 t-79.5 76t-26.5 106zM138 617h94l42 -153h-57z" />
<glyph unicode="&#xe9;" horiz-adv-x="493" d="M34 200q0 58 26 105t74 75.5t113 28.5q66 0 113.5 -28.5t73 -75.5t25.5 -105v-43h-369v80h272q0 22 -13.5 43.5t-39 36.5t-62.5 15t-62.5 -15.5t-39 -39.5t-13.5 -49v-28q0 -57 35 -91t107 -34q42 0 79 13.5t61 35.5l42 -73q-31 -28 -80 -44.5t-105 -16.5q-78 0 -131 28 t-79.5 76t-26.5 106zM217 464l42 153h93l-78 -153h-57z" />
<glyph unicode="&#xea;" horiz-adv-x="493" d="M34 200q0 58 26 105t74 75.5t113 28.5q66 0 113.5 -28.5t73 -75.5t25.5 -105v-43h-369v80h272q0 22 -13.5 43.5t-39 36.5t-62.5 15t-62.5 -15.5t-39 -39.5t-13.5 -49v-28q0 -57 35 -91t107 -34q42 0 79 13.5t61 35.5l42 -73q-31 -28 -80 -44.5t-105 -16.5q-78 0 -131 28 t-79.5 76t-26.5 106zM114 464l80 153h104l79 -153h-61l-71 109l-70 -109h-61z" />
<glyph unicode="&#xeb;" horiz-adv-x="493" d="M34 200q0 58 26 105t74 75.5t113 28.5q66 0 113.5 -28.5t73 -75.5t25.5 -105v-43h-369v80h272q0 22 -13.5 43.5t-39 36.5t-62.5 15t-62.5 -15.5t-39 -39.5t-13.5 -49v-28q0 -57 35 -91t107 -34q42 0 79 13.5t61 35.5l42 -73q-31 -28 -80 -44.5t-105 -16.5q-78 0 -131 28 t-79.5 76t-26.5 106zM112 514q0 24 15.5 37t36.5 13q22 0 37 -13t15 -37t-15 -37t-37 -13q-21 0 -36.5 13t-15.5 37zM274 513q0 25 15.5 38t36.5 13t36.5 -13t15.5 -38q0 -24 -15.5 -36.5t-36.5 -12.5t-36.5 12.5t-15.5 36.5z" />
<glyph unicode="&#xec;" horiz-adv-x="266" d="M16 322v77h169v-322h57v-77h-221v77h62v245h-67zM28 617h94l42 -153h-57z" />
<glyph unicode="&#xed;" horiz-adv-x="266" d="M16 322v77h169v-322h57v-77h-221v77h62v245h-67zM107 464l42 153h93l-78 -153h-57z" />
<glyph unicode="&#xee;" horiz-adv-x="266" d="M4 464l80 153h104l79 -153h-61l-71 109l-70 -109h-61zM16 322v77h169v-322h57v-77h-221v77h62v245h-67z" />
<glyph unicode="&#xef;" horiz-adv-x="266" d="M2 514q0 24 15.5 37t36.5 13q22 0 37 -13t15 -37t-15 -37t-37 -13q-21 0 -36.5 13t-15.5 37zM16 322v77h169v-322h57v-77h-221v77h62v245h-67zM164 513q0 25 15.5 38t36.5 13t36.5 -13t15.5 -38q0 -24 -15.5 -36.5t-36.5 -12.5t-36.5 12.5t-15.5 36.5z" />
<glyph unicode="&#xf0;" horiz-adv-x="496" d="M36 182q0 55 26 98t73 68t109 25q20 0 43.5 -5.5t43.5 -16t28 -26.5h-8q-16 40 -45 76.5t-71 68.5l39 -5l-162 -60l-19 59l129 46l-13 -20q-20 17 -44.5 31t-53.5 28l38 71q42 -19 80 -44t71 -55l-39 4l141 51l19 -58l-117 -41l14 25q71 -67 106.5 -144.5t35.5 -151.5 q0 -69 -27 -117.5t-75.5 -73.5t-112.5 -25q-65 0 -112 25t-72 68.5t-25 98.5zM136 182q0 -49 30 -78.5t82 -29.5q53 0 83 29.5t30 78.5q0 48 -30 77.5t-83 29.5q-52 0 -82 -29.5t-30 -77.5z" />
<glyph unicode="&#xf1;" horiz-adv-x="544" d="M16 322v77h162v-61l-13 -3q38 38 82.5 56t88.5 18q63 0 99 -33.5t36 -104.5v-194h57v-77h-221v77h62v168q0 40 -18 58t-57 18q-29 0 -59 -11t-62 -39l12 32v-226h58v-77h-222v77h62v245h-67zM122 464q4 53 27.5 77.5t58.5 24.5q23 0 43.5 -10.5t39 -21.5t35.5 -11 q16 0 26 12t12 31h45q-4 -52 -27.5 -77t-58.5 -25q-23 0 -43.5 11t-39 21.5t-35.5 10.5q-16 0 -26 -11.5t-12 -31.5h-45z" />
<glyph unicode="&#xf2;" horiz-adv-x="502" d="M34 200q0 59 27 106t76 75t114 28t114 -28t76 -75t27 -106q0 -58 -27 -106t-76 -76t-114 -28t-114 28t-76 76t-27 106zM133 200q0 -55 32 -90.5t86 -35.5q53 0 85.5 35.5t32.5 90.5t-32.5 90t-85.5 35q-54 0 -86 -35t-32 -90zM144 617h94l42 -153h-57z" />
<glyph unicode="&#xf3;" horiz-adv-x="502" d="M34 200q0 59 27 106t76 75t114 28t114 -28t76 -75t27 -106q0 -58 -27 -106t-76 -76t-114 -28t-114 28t-76 76t-27 106zM133 200q0 -55 32 -90.5t86 -35.5q53 0 85.5 35.5t32.5 90.5t-32.5 90t-85.5 35q-54 0 -86 -35t-32 -90zM223 464l42 153h93l-78 -153h-57z" />
<glyph unicode="&#xf4;" horiz-adv-x="502" d="M34 200q0 59 27 106t76 75t114 28t114 -28t76 -75t27 -106q0 -58 -27 -106t-76 -76t-114 -28t-114 28t-76 76t-27 106zM120 464l80 153h104l79 -153h-61l-71 109l-70 -109h-61zM133 200q0 -55 32 -90.5t86 -35.5q53 0 85.5 35.5t32.5 90.5t-32.5 90t-85.5 35 q-54 0 -86 -35t-32 -90z" />
<glyph unicode="&#xf5;" horiz-adv-x="502" d="M34 200q0 59 27 106t76 75t114 28t114 -28t76 -75t27 -106q0 -58 -27 -106t-76 -76t-114 -28t-114 28t-76 76t-27 106zM108 464q4 53 27.5 77.5t58.5 24.5q23 0 43.5 -10.5t39 -21.5t35.5 -11q16 0 26 12t12 31h45q-4 -52 -27.5 -77t-58.5 -25q-23 0 -43.5 11t-39 21.5 t-35.5 10.5q-16 0 -26 -11.5t-12 -31.5h-45zM133 200q0 -55 32 -90.5t86 -35.5q53 0 85.5 35.5t32.5 90.5t-32.5 90t-85.5 35q-54 0 -86 -35t-32 -90z" />
<glyph unicode="&#xf6;" horiz-adv-x="502" d="M34 200q0 59 27 106t76 75t114 28t114 -28t76 -75t27 -106q0 -58 -27 -106t-76 -76t-114 -28t-114 28t-76 76t-27 106zM118 514q0 24 15.5 37t36.5 13q22 0 37 -13t15 -37t-15 -37t-37 -13q-21 0 -36.5 13t-15.5 37zM133 200q0 -55 32 -90.5t86 -35.5q53 0 85.5 35.5 t32.5 90.5t-32.5 90t-85.5 35q-54 0 -86 -35t-32 -90zM280 513q0 25 15.5 38t36.5 13t36.5 -13t15.5 -38q0 -24 -15.5 -36.5t-36.5 -12.5t-36.5 12.5t-15.5 36.5z" />
<glyph unicode="&#xf7;" horiz-adv-x="486" d="M40 255v84h406v-84h-406zM204 97v93h78v-93h-78zM204 404v93h78v-93h-78z" />
<glyph unicode="&#xf8;" horiz-adv-x="502" d="M34 200q0 59 27 106t76 75t114 28q63 0 109 -26l42 56l38 -29l-42 -53q32 -26 51 -66.5t19 -90.5q0 -58 -27 -106t-76 -76t-114 -28q-31 0 -58 6.5t-51 19.5l-42 -56l-38 29l41 52q-30 27 -49.5 68t-19.5 91zM131 200q0 -28 8 -49.5t26 -41.5l-23 -8l187 231l-4 -32 q-16 11 -33.5 17.5t-40.5 6.5q-54 0 -87 -34t-33 -90zM172 67l9 28q15 -9 32.5 -14.5t37.5 -5.5q53 0 86 34.5t33 90.5q0 27 -8.5 49t-19.5 35l15 11z" />
<glyph unicode="&#xf9;" horiz-adv-x="537" d="M6 322v77h169v-245q0 -40 18 -58t57 -18q29 0 59.5 12t61.5 40l-19 -33v225h-62v77h164v-322h57v-77h-151v61l20 3q-38 -38 -82.5 -56t-88.5 -18q-58 0 -97 34t-39 104v194h-67zM157 617h94l42 -153h-57z" />
<glyph unicode="&#xfa;" horiz-adv-x="537" d="M6 322v77h169v-245q0 -40 18 -58t57 -18q29 0 59.5 12t61.5 40l-19 -33v225h-62v77h164v-322h57v-77h-151v61l20 3q-38 -38 -82.5 -56t-88.5 -18q-58 0 -97 34t-39 104v194h-67zM236 464l42 153h93l-78 -153h-57z" />
<glyph unicode="&#xfb;" horiz-adv-x="537" d="M6 322v77h169v-245q0 -40 18 -58t57 -18q29 0 59.5 12t61.5 40l-19 -33v225h-62v77h164v-322h57v-77h-151v61l20 3q-38 -38 -82.5 -56t-88.5 -18q-58 0 -97 34t-39 104v194h-67zM133 464l80 153h104l79 -153h-61l-71 109l-70 -109h-61z" />
<glyph unicode="&#xfc;" horiz-adv-x="537" d="M6 322v77h169v-245q0 -40 18 -58t57 -18q29 0 59.5 12t61.5 40l-19 -33v225h-62v77h164v-322h57v-77h-151v61l20 3q-38 -38 -82.5 -56t-88.5 -18q-58 0 -97 34t-39 104v194h-67zM131 514q0 24 15.5 37t36.5 13q22 0 37 -13t15 -37t-15 -37t-37 -13q-21 0 -36.5 13 t-15.5 37zM293 513q0 25 15.5 38t36.5 13t36.5 -13t15.5 -38q0 -24 -15.5 -36.5t-36.5 -12.5t-36.5 12.5t-15.5 36.5z" />
<glyph unicode="&#xfd;" horiz-adv-x="509" d="M3 322v77h217v-77h-58l87 -244l-14 -7l121 251h-57v77h207v-77h-50l-194 -399q-24 -50 -57 -72t-88 -22h-70v90h60q29 0 45.5 11t28.5 36l33 66l30 -32h-65l-126 322h-50zM239 464l42 153h93l-78 -153h-57z" />
<glyph unicode="&#xfe;" horiz-adv-x="530" d="M10 506v77h169v-251h-14q20 38 58.5 57.5t80.5 19.5q64 0 106.5 -30.5t64 -78t21.5 -100.5t-21.5 -101t-64 -78.5t-106.5 -30.5q-42 0 -80.5 20t-58.5 57h14v-161h57v-77h-222v77h63v600h-67zM174 129q23 -28 51.5 -40t58.5 -12q47 0 80 32t33 91t-33 90.5t-80 31.5 q-30 0 -58.5 -11.5t-51.5 -40.5l5 38v-221z" />
<glyph unicode="&#xff;" horiz-adv-x="509" d="M3 322v77h217v-77h-58l87 -244l-14 -7l121 251h-57v77h207v-77h-50l-194 -399q-24 -50 -57 -72t-88 -22h-70v90h60q29 0 45.5 11t28.5 36l33 66l30 -32h-65l-126 322h-50zM134 514q0 24 15.5 37t36.5 13q22 0 37 -13t15 -37t-15 -37t-37 -13q-21 0 -36.5 13t-15.5 37z M296 513q0 25 15.5 38t36.5 13t36.5 -13t15.5 -38q0 -24 -15.5 -36.5t-36.5 -12.5t-36.5 12.5t-15.5 36.5z" />
<glyph unicode="&#x152;" horiz-adv-x="974" d="M40 293q0 87 33.5 152t104.5 101.5t182 36.5h560v-191h-76v108h-251v-163h127v60h70v-208h-69v65h-128v-171h269v113h75v-196h-576q-112 0 -183 36t-104.5 102t-33.5 155zM159 293q0 -65 20.5 -112t67 -72.5t124.5 -25.5h107v417h-105q-79 0 -126 -24.5t-67.5 -71 t-20.5 -111.5z" />
<glyph unicode="&#x153;" horiz-adv-x="827" d="M34 200q0 59 27 106t76 75t114 28t110 -28t67 -76l-24 -1q22 48 68.5 76.5t112.5 28.5q64 0 110.5 -28.5t72 -75.5t25.5 -105v-43h-369v80h272q0 22 -13.5 43.5t-39 36.5t-62.5 15t-62.5 -15.5t-39 -39.5t-13.5 -49v-28q0 -57 35 -91t107 -34q42 0 79 13.5t61 34.5 l42 -72q-31 -28 -80 -44.5t-105 -16.5q-76 0 -127.5 28t-71.5 77l25 1q-19 -48 -65.5 -77t-114.5 -29q-65 0 -114 28t-76 76t-27 106zM133 200q0 -55 32 -90.5t86 -35.5q53 0 85.5 35.5t32.5 90.5t-32.5 90t-85.5 35q-54 0 -86 -35t-32 -90z" />
<glyph unicode="&#x178;" horiz-adv-x="634" d="M0 500v83h253v-83h-70l149 -211h-27l151 211h-70v83h248v-83h-63l-197 -272v-145h77v-83h-269v83h77v145l-196 272h-63zM184 698q0 24 15.5 37t36.5 13q22 0 37 -13t15 -37t-15 -37t-37 -13q-21 0 -36.5 13t-15.5 37zM346 697q0 25 15.5 38t36.5 13t36.5 -13t15.5 -38 q0 -24 -15.5 -36.5t-36.5 -12.5t-36.5 12.5t-15.5 36.5z" />
<glyph unicode="&#x2c6;" horiz-adv-x="500" d="M119 463l80 153h104l79 -153h-61l-71 109l-70 -109h-61z" />
<glyph unicode="&#x2dc;" horiz-adv-x="500" d="M107 463q4 53 27.5 77.5t58.5 24.5q23 0 43.5 -10.5t39 -21.5t35.5 -11q16 0 26 12t12 31h45q-4 -52 -27.5 -77t-58.5 -25q-23 0 -43.5 11t-39 21.5t-35.5 10.5q-16 0 -26 -11.5t-12 -31.5h-45z" />
<glyph unicode="&#x2000;" horiz-adv-x="411" />
<glyph unicode="&#x2001;" horiz-adv-x="823" />
<glyph unicode="&#x2002;" horiz-adv-x="411" />
<glyph unicode="&#x2003;" horiz-adv-x="823" />
<glyph unicode="&#x2004;" horiz-adv-x="274" />
<glyph unicode="&#x2005;" horiz-adv-x="205" />
<glyph unicode="&#x2006;" horiz-adv-x="137" />
<glyph unicode="&#x2007;" horiz-adv-x="137" />
<glyph unicode="&#x2008;" horiz-adv-x="102" />
<glyph unicode="&#x2009;" horiz-adv-x="164" />
<glyph unicode="&#x200a;" horiz-adv-x="45" />
<glyph unicode="&#x2010;" horiz-adv-x="360" d="M53 169v73h254v-73h-254z" />
<glyph unicode="&#x2011;" horiz-adv-x="360" d="M53 169v73h254v-73h-254z" />
<glyph unicode="&#x2012;" horiz-adv-x="360" d="M53 169v73h254v-73h-254z" />
<glyph unicode="&#x2013;" horiz-adv-x="611" d="M53 169v73h505v-73h-505z" />
<glyph unicode="&#x2014;" horiz-adv-x="821" d="M53 169v73h715v-73h-715z" />
<glyph unicode="&#x2018;" horiz-adv-x="155" d="M29 462v78q0 65 22.5 95.5t75.5 30.5v-52q-28 0 -37 -12.5t-9 -45.5h46v-94h-98z" />
<glyph unicode="&#x2019;" horiz-adv-x="154" d="M28 452v52q28 0 36.5 12.5t8.5 45.5h-45v94h97v-78q0 -64 -22 -95t-75 -31z" />
<glyph unicode="&#x201a;" horiz-adv-x="154" d="M28 0v93h97v-77q0 -65 -22 -95.5t-75 -30.5v52q28 0 36.5 12t8.5 46h-45z" />
<glyph unicode="&#x201c;" horiz-adv-x="289" d="M29 462v78q0 65 22.5 95.5t75.5 30.5v-52q-28 0 -37 -12.5t-9 -45.5h46v-94h-98zM163 462v78q0 65 22.5 95.5t75.5 30.5v-52q-28 0 -37 -12.5t-9 -45.5h46v-94h-98z" />
<glyph unicode="&#x201d;" horiz-adv-x="289" d="M28 452v52q28 0 36.5 12.5t8.5 45.5h-45v94h97v-78q0 -64 -22 -95t-75 -31zM163 452v52q28 0 36.5 12.5t8.5 45.5h-45v94h97v-78q0 -64 -22 -95t-75 -31z" />
<glyph unicode="&#x201e;" horiz-adv-x="289" d="M28 0v93h97v-77q0 -65 -22 -95.5t-75 -30.5v52q28 0 36.5 12t8.5 46h-45zM163 0v93h97v-77q0 -65 -22 -95.5t-75 -30.5v52q28 0 36.5 12t8.5 46h-45z" />
<glyph unicode="&#x2022;" horiz-adv-x="274" d="M48 117v178h178v-178h-178z" />
<glyph unicode="&#x2026;" horiz-adv-x="446" d="M28 0v93h98v-93h-98zM174 0v93h98v-93h-98zM320 0v93h98v-93h-98z" />
<glyph unicode="&#x202f;" horiz-adv-x="164" />
<glyph unicode="&#x2039;" horiz-adv-x="261" d="M30 204l115 151h91l-105 -150l105 -150h-91z" />
<glyph unicode="&#x203a;" horiz-adv-x="261" d="M25 55l105 150l-105 150h91l115 -151l-115 -149h-91z" />
<glyph unicode="&#x205f;" horiz-adv-x="205" />
<glyph unicode="&#x20ac;" horiz-adv-x="718" d="M15 214v52h71q-1 17 -1 29.5t1 22.5h-71v52h79q15 66 56 116.5t102 79t136 28.5q87 0 147.5 -36t84.5 -111l-29 18v118h78v-197h-74q-27 59 -76.5 84t-108.5 25q-49 0 -88 -15t-65.5 -43t-39.5 -67h241v-52h-253q-1 -17 -1 -29.5t1 -22.5h253v-52h-243q19 -53 65.5 -89 t123.5 -36q64 0 110 29t74 96l89 -45q-33 -87 -101.5 -133t-172.5 -46q-84 0 -148.5 29.5t-105.5 80.5t-55 114h-79z" />
<glyph unicode="&#x2122;" horiz-adv-x="799" d="M42 471v112h281v-112h-46v71h-66v-201h51v-41h-159v41h51v201h-66v-71h-46zM382 300v41h37v201h-37v41h101l91 -180l89 180h104v-41h-37v-201h37v-41h-132v41h42v169l-91 -186h-25l-95 187v-170h42v-41h-126z" />
</font>
</defs>
</svg>
